<?xml version="1.0" standalone="no"?>
<!DOCTYPE svg PUBLIC "-//W3C//DTD SVG 20010904//EN"
 "http://www.w3.org/TR/2001/REC-SVG-20010904/DTD/svg10.dtd">
<svg version="1.0" xmlns="http://www.w3.org/2000/svg"
 width="246.000000pt" height="181.000000pt" viewBox="0 0 246.000000 181.000000"
 preserveAspectRatio="xMidYMid meet">
<metadata>
Created by potrace 1.10, written by Peter Selinger 2001-2011
</metadata>
<g transform="translate(0.000000,181.000000) scale(0.100000,-0.100000)"
fill="#000000" stroke="none">
<path d="M649 1197 l-576 -502 193 -3 194 -2 2 -333 3 -332 142 -3 143 -3 0
335 0 335 -141 3 -142 3 109 95 c60 53 156 137 214 187 58 50 181 157 274 237
l168 147 47 -43 c26 -24 197 -173 381 -333 l333 -290 -141 -3 -142 -3 0 -335
0 -335 143 3 142 3 3 332 2 333 194 2 193 3 -575 500 c-316 275 -578 501 -581
502 -3 1 -265 -224 -582 -500z"/>
<path d="M1090 190 l0 -170 140 0 140 0 0 170 0 170 -140 0 -140 0 0 -170z"/>
</g>
</svg>
